<mxfile host="Electron" agent="Mozilla/5.0 (Windows NT 10.0; Win64; x64) AppleWebKit/537.36 (KHTML, like Gecko) draw.io/27.0.9 Chrome/134.0.6998.205 Electron/35.4.0 Safari/537.36" version="27.0.9">
  <diagram name="Page-1" id="IhYP55dKhegCn6tJRc8g">
    <mxGraphModel dx="1042" dy="626" grid="0" gridSize="10" guides="1" tooltips="1" connect="1" arrows="1" fold="1" page="1" pageScale="1" pageWidth="850" pageHeight="1100" math="0" shadow="0">
      <root>
        <mxCell id="0" />
        <mxCell id="1" parent="0" />
        <mxCell id="nOnSo9jsxTS1IPp0SWsK-1" value="Admin" style="shape=umlActor;verticalLabelPosition=bottom;verticalAlign=top;html=1;" parent="1" vertex="1">
          <mxGeometry x="90" y="220" width="30" height="60" as="geometry" />
        </mxCell>
        <mxCell id="nOnSo9jsxTS1IPp0SWsK-3" value="Khóa ngắt" style="ellipse;whiteSpace=wrap;html=1;" parent="1" vertex="1">
          <mxGeometry x="270" y="120" width="110" height="60" as="geometry" />
        </mxCell>
        <mxCell id="nOnSo9jsxTS1IPp0SWsK-5" value="Tạo mới" style="ellipse;whiteSpace=wrap;html=1;" parent="1" vertex="1">
          <mxGeometry x="260" y="210" width="110" height="60" as="geometry" />
        </mxCell>
        <mxCell id="nOnSo9jsxTS1IPp0SWsK-6" value="Quản lý" style="ellipse;whiteSpace=wrap;html=1;" parent="1" vertex="1">
          <mxGeometry x="260" y="310" width="110" height="60" as="geometry" />
        </mxCell>
        <mxCell id="nOnSo9jsxTS1IPp0SWsK-7" value="" style="endArrow=none;html=1;rounded=0;entryX=0.055;entryY=0.68;entryDx=0;entryDy=0;entryPerimeter=0;" parent="1" target="nOnSo9jsxTS1IPp0SWsK-3" edge="1">
          <mxGeometry width="50" height="50" relative="1" as="geometry">
            <mxPoint x="140" y="240" as="sourcePoint" />
            <mxPoint x="190" y="190" as="targetPoint" />
          </mxGeometry>
        </mxCell>
        <mxCell id="nOnSo9jsxTS1IPp0SWsK-8" value="" style="endArrow=none;html=1;rounded=0;" parent="1" edge="1">
          <mxGeometry width="50" height="50" relative="1" as="geometry">
            <mxPoint x="140" y="240" as="sourcePoint" />
            <mxPoint x="260" y="240" as="targetPoint" />
          </mxGeometry>
        </mxCell>
        <mxCell id="nOnSo9jsxTS1IPp0SWsK-9" value="" style="endArrow=none;html=1;rounded=0;" parent="1" edge="1">
          <mxGeometry width="50" height="50" relative="1" as="geometry">
            <mxPoint x="140" y="240" as="sourcePoint" />
            <mxPoint x="260" y="340" as="targetPoint" />
          </mxGeometry>
        </mxCell>
        <mxCell id="nOnSo9jsxTS1IPp0SWsK-10" value="Hiển thị" style="ellipse;whiteSpace=wrap;html=1;" parent="1" vertex="1">
          <mxGeometry x="440" y="350" width="110" height="60" as="geometry" />
        </mxCell>
        <mxCell id="nOnSo9jsxTS1IPp0SWsK-11" value="Update" style="ellipse;whiteSpace=wrap;html=1;" parent="1" vertex="1">
          <mxGeometry x="440" y="270" width="110" height="60" as="geometry" />
        </mxCell>
        <mxCell id="nOnSo9jsxTS1IPp0SWsK-12" value="Sync" style="ellipse;whiteSpace=wrap;html=1;" parent="1" vertex="1">
          <mxGeometry x="450" y="440" width="110" height="60" as="geometry" />
        </mxCell>
        <mxCell id="nOnSo9jsxTS1IPp0SWsK-14" value="" style="endArrow=classic;html=1;rounded=0;entryX=0;entryY=0.667;entryDx=0;entryDy=0;entryPerimeter=0;dashed=1;endFill=1;" parent="1" target="nOnSo9jsxTS1IPp0SWsK-11" edge="1">
          <mxGeometry width="50" height="50" relative="1" as="geometry">
            <mxPoint x="370" y="340" as="sourcePoint" />
            <mxPoint x="420" y="290" as="targetPoint" />
          </mxGeometry>
        </mxCell>
        <mxCell id="nOnSo9jsxTS1IPp0SWsK-15" value="" style="endArrow=classic;html=1;rounded=0;entryX=0.033;entryY=0.233;entryDx=0;entryDy=0;entryPerimeter=0;dashed=1;endFill=1;" parent="1" target="nOnSo9jsxTS1IPp0SWsK-10" edge="1">
          <mxGeometry width="50" height="50" relative="1" as="geometry">
            <mxPoint x="370" y="340" as="sourcePoint" />
            <mxPoint x="440" y="320" as="targetPoint" />
          </mxGeometry>
        </mxCell>
        <mxCell id="nOnSo9jsxTS1IPp0SWsK-16" value="" style="endArrow=classic;html=1;rounded=0;entryX=0.091;entryY=0.167;entryDx=0;entryDy=0;entryPerimeter=0;dashed=1;endFill=1;" parent="1" target="nOnSo9jsxTS1IPp0SWsK-12" edge="1">
          <mxGeometry width="50" height="50" relative="1" as="geometry">
            <mxPoint x="370" y="340" as="sourcePoint" />
            <mxPoint x="490" y="410" as="targetPoint" />
          </mxGeometry>
        </mxCell>
        <mxCell id="nOnSo9jsxTS1IPp0SWsK-20" value="" style="sketch=0;pointerEvents=1;shadow=0;dashed=0;html=1;strokeColor=none;labelPosition=center;verticalLabelPosition=bottom;verticalAlign=top;align=center;fillColor=#515151;shape=mxgraph.mscae.enterprise.database_server" parent="1" vertex="1">
          <mxGeometry x="680" y="240" width="38" height="50" as="geometry" />
        </mxCell>
        <mxCell id="nOnSo9jsxTS1IPp0SWsK-21" value="Bank system" style="text;html=1;align=center;verticalAlign=middle;resizable=0;points=[];autosize=1;strokeColor=none;fillColor=none;" parent="1" vertex="1">
          <mxGeometry x="654" y="300" width="90" height="30" as="geometry" />
        </mxCell>
        <mxCell id="nOnSo9jsxTS1IPp0SWsK-22" value="" style="endArrow=none;html=1;rounded=0;" parent="1" edge="1">
          <mxGeometry width="50" height="50" relative="1" as="geometry">
            <mxPoint x="380" y="150" as="sourcePoint" />
            <mxPoint x="670" y="260" as="targetPoint" />
          </mxGeometry>
        </mxCell>
        <mxCell id="nOnSo9jsxTS1IPp0SWsK-23" value="" style="endArrow=none;html=1;rounded=0;exitX=0.956;exitY=0.393;exitDx=0;exitDy=0;exitPerimeter=0;" parent="1" source="nOnSo9jsxTS1IPp0SWsK-5" edge="1">
          <mxGeometry width="50" height="50" relative="1" as="geometry">
            <mxPoint x="620" y="310" as="sourcePoint" />
            <mxPoint x="670" y="260" as="targetPoint" />
          </mxGeometry>
        </mxCell>
        <mxCell id="nOnSo9jsxTS1IPp0SWsK-24" value="" style="endArrow=none;html=1;rounded=0;exitX=1;exitY=0;exitDx=0;exitDy=0;" parent="1" source="nOnSo9jsxTS1IPp0SWsK-12" edge="1">
          <mxGeometry width="50" height="50" relative="1" as="geometry">
            <mxPoint x="620" y="310" as="sourcePoint" />
            <mxPoint x="670" y="260" as="targetPoint" />
          </mxGeometry>
        </mxCell>
      </root>
    </mxGraphModel>
  </diagram>
</mxfile>
